<svg width="54" height="95" viewBox="0 0 54 95" fill="none" xmlns="http://www.w3.org/2000/svg">
<path opacity="0.7" d="M53.4248 77.7295L24.6275 94.3526L0.09021 80.0914L28.8833 63.4679L53.4248 77.7295Z" fill="url(#paint0_linear)"/>
<path d="M53.3345 44.6398L53.4275 77.7128L28.8869 63.4512L28.7939 30.3786L53.3345 44.6398Z" fill="url(#paint1_linear)"/>
<path d="M24.6313 94.356L0.0939771 80.0944L0.000183105 47.0051L24.5375 61.2663L24.6313 94.356Z" fill="url(#paint2_linear)"/>
<path d="M24.5373 61.2531L0 46.9952L28.7939 30.3717L53.3313 44.63L24.5373 61.2531Z" fill="url(#paint3_linear)"/>
<path d="M27.8929 23.0137C35.0423 23.0137 40.8381 17.8619 40.8381 11.5068C40.8381 5.15179 35.0423 0 27.8929 0C20.7435 0 14.9477 5.15179 14.9477 11.5068C14.9477 17.8619 20.7435 23.0137 27.8929 23.0137Z" fill="url(#paint4_linear)"/>
<defs>
<linearGradient id="paint0_linear" x1="0.09021" y1="78.9102" x2="53.4248" y2="78.9102" gradientUnits="userSpaceOnUse">
<stop stop-color="#9175F9"/>
<stop offset="1" stop-color="#4C30B2"/>
</linearGradient>
<linearGradient id="paint1_linear" x1="28.7939" y1="54.0457" x2="53.4275" y2="54.0457" gradientUnits="userSpaceOnUse">
<stop stop-color="#9175F9"/>
<stop offset="1" stop-color="#4C30B2"/>
</linearGradient>
<linearGradient id="paint2_linear" x1="0.000183105" y1="70.6806" x2="24.6313" y2="70.6806" gradientUnits="userSpaceOnUse">
<stop stop-color="#9175F9"/>
<stop offset="1" stop-color="#4C30B2"/>
</linearGradient>
<linearGradient id="paint3_linear" x1="0" y1="45.8124" x2="53.3313" y2="45.8124" gradientUnits="userSpaceOnUse">
<stop stop-color="#9175F9"/>
<stop offset="1" stop-color="#4C30B2"/>
</linearGradient>
<linearGradient id="paint4_linear" x1="48.7347" y1="0.621372" x2="11.6239" y2="25.1367" gradientUnits="userSpaceOnUse">
<stop offset="0.274" stop-color="#09797A"/>
<stop offset="1" stop-color="#71FEFF"/>
</linearGradient>
</defs>
</svg>
